<?xml version="1.0" standalone="no"?><!DOCTYPE svg PUBLIC "-//W3C//DTD SVG 1.1//EN" "http://www.w3.org/Graphics/SVG/1.1/DTD/svg11.dtd"><svg height="1024" node-id="1" sillyvg="true" template-height="1024" template-width="1024" version="1.1" viewBox="0 0 1024 1024" width="1024" xmlns="http://www.w3.org/2000/svg" xmlns:xlink="http://www.w3.org/1999/xlink"><defs node-id="169"><linearGradient gradientUnits="userSpaceOnUse" id="未命名的渐变_131" node-id="13" spreadMethod="pad" x1="196.31" x2="826.98" y1="816.71" y2="816.71"><stop offset="0" stop-color="#041fb2"></stop><stop offset="0.07" stop-color="#0524b4"></stop><stop offset="0.15" stop-color="#0831b8"></stop><stop offset="0.23" stop-color="#0d47c0"></stop><stop offset="0.32" stop-color="#1367cb"></stop><stop offset="0.41" stop-color="#1c8fda"></stop><stop offset="0.5" stop-color="#26bfeb"></stop><stop offset="0.55" stop-color="#2ee2f7"></stop><stop offset="0.61" stop-color="#2ddef6"></stop><stop offset="0.68" stop-color="#2ad2f2"></stop><stop offset="0.74" stop-color="#26bdec"></stop><stop offset="0.8" stop-color="#1fa0e3"></stop><stop offset="0.86" stop-color="#177bd7"></stop><stop offset="0.93" stop-color="#0d4fca"></stop><stop offset="0.98" stop-color="#0426bd"></stop></linearGradient><radialGradient cx="511.65" cy="816.83" fx="511.65" fy="816.83" gradientUnits="userSpaceOnUse" id="未命名的渐变_144" node-id="29" r="229.41" spreadMethod="pad"><stop offset="0" stop-color="#95e2f7"></stop><stop offset="0.25" stop-color="#74d6ea"></stop><stop offset="0.8" stop-color="#21b7c8"></stop><stop offset="0.98" stop-color="#04adbd"></stop></radialGradient><linearGradient gradientUnits="userSpaceOnUse" id="未命名的渐变_169" node-id="34" spreadMethod="pad" x1="344.88" x2="679.4" y1="925.48" y2="590.97"><stop offset="0" stop-color="#04adbd"></stop><stop offset="0.13" stop-color="#049abd"></stop><stop offset="0.73" stop-color="#0447bd"></stop><stop offset="1" stop-color="#0426bd"></stop></linearGradient><linearGradient gradientUnits="userSpaceOnUse" id="未命名的渐变_74" node-id="39" spreadMethod="pad" x1="344.71" x2="679.58" y1="925.66" y2="590.79"><stop offset="0" stop-color="#4244cf"></stop><stop offset="0.13" stop-color="#3d50d1"></stop><stop offset="0.38" stop-color="#2f6fd5"></stop><stop offset="0.69" stop-color="#19a0dc"></stop><stop offset="1" stop-color="#00d7e3"></stop></linearGradient><linearGradient gradientUnits="userSpaceOnUse" id="未命名的渐变_136" node-id="45" spreadMethod="pad" x1="199.3" x2="828.98" y1="721.32" y2="721.32"><stop offset="0" stop-color="#2ee2f7"></stop><stop offset="0.98" stop-color="#0426bd"></stop></linearGradient><linearGradient gradientUnits="userSpaceOnUse" id="未命名的渐变_92" node-id="48" spreadMethod="pad" x1="198.8" x2="829.48" y1="721.32" y2="721.32"><stop offset="0" stop-color="#2ee2f7"></stop><stop offset="0.13" stop-color="#31ceef"></stop><stop offset="0.41" stop-color="#389adc"></stop><stop offset="0.8" stop-color="#4447bc"></stop><stop offset="1" stop-color="#4a1aab"></stop></linearGradient><linearGradient gradientUnits="userSpaceOnUse" id="未命名的渐变_347" node-id="54" spreadMethod="pad" x1="196.8" x2="827.48" y1="721.32" y2="721.32"><stop offset="0" stop-color="#0924ad"></stop><stop offset="0.48" stop-color="#00e1ed"></stop><stop offset="0.55" stop-color="#1fb6e9"></stop><stop offset="0.67" stop-color="#4d76e4"></stop><stop offset="0.78" stop-color="#7143e0"></stop><stop offset="0.87" stop-color="#8b1edd"></stop><stop offset="0.95" stop-color="#9b08db"></stop><stop offset="1" stop-color="#a100da"></stop></linearGradient><linearGradient gradientUnits="userSpaceOnUse" id="未命名的渐变_76" node-id="5" spreadMethod="pad" x1="343.43" x2="439.18" y1="474.14" y2="474.14"><stop offset="0" stop-color="#0b00ed"></stop><stop offset="0.34" stop-color="#0a0fd2"></stop><stop offset="0.76" stop-color="#091eb7"></stop><stop offset="1" stop-color="#0924ad"></stop></linearGradient><linearGradient gradientUnits="userSpaceOnUse" id="未命名的渐变_76-3" node-id="65" spreadMethod="pad" x1="364.79" x2="439.18" y1="469.93" y2="469.93"><stop offset="0" stop-color="#0b00ed"></stop><stop offset="0.34" stop-color="#0a0fd2"></stop><stop offset="0.76" stop-color="#091eb7"></stop><stop offset="1" stop-color="#0924ad"></stop></linearGradient><linearGradient gradientUnits="userSpaceOnUse" id="未命名的渐变_80-2" node-id="66" spreadMethod="pad" x1="406.24" x2="396.62" y1="479.08" y2="462.42"><stop offset="0" stop-color="#0924ad"></stop><stop offset="1" stop-color="#00e1ed"></stop></linearGradient><linearGradient gradientUnits="userSpaceOnUse" id="未命名的渐变_76-4" node-id="67" spreadMethod="pad" x1="346.89" x2="400.44" y1="474.75" y2="474.75"><stop offset="0" stop-color="#0b00ed"></stop><stop offset="0.34" stop-color="#0a0fd2"></stop><stop offset="0.76" stop-color="#091eb7"></stop><stop offset="1" stop-color="#0924ad"></stop></linearGradient><linearGradient gradientUnits="userSpaceOnUse" id="未命名的渐变_80-3" node-id="68" spreadMethod="pad" x1="375.75" x2="373.35" y1="476.36" y2="472.2"><stop offset="0" stop-color="#0924ad"></stop><stop offset="1" stop-color="#00e1ed"></stop></linearGradient><linearGradient gradientUnits="userSpaceOnUse" id="未命名的渐变_76-5" node-id="69" spreadMethod="pad" x1="343.43" x2="382.55" y1="478.96" y2="478.96"><stop offset="0" stop-color="#0b00ed"></stop><stop offset="0.34" stop-color="#0a0fd2"></stop><stop offset="0.76" stop-color="#091eb7"></stop><stop offset="1" stop-color="#0924ad"></stop></linearGradient><linearGradient gradientUnits="userSpaceOnUse" id="未命名的渐变_80-4" node-id="70" spreadMethod="pad" x1="363.42" x2="362.57" y1="479.69" y2="478.21"><stop offset="0" stop-color="#0924ad"></stop><stop offset="1" stop-color="#00e1ed"></stop></linearGradient><linearGradient gradientUnits="userSpaceOnUse" id="未命名的渐变_80" node-id="10" spreadMethod="pad" x1="397.28" x2="385.98" y1="484.25" y2="464.69"><stop offset="0" stop-color="#0924ad"></stop><stop offset="1" stop-color="#00e1ed"></stop></linearGradient><linearGradient gradientUnits="userSpaceOnUse" id="未命名的渐变_73" node-id="71" spreadMethod="pad" x1="456.98" x2="789.42" y1="556.28" y2="556.28"><stop offset="0" stop-color="#a100da"></stop><stop offset="0.12" stop-color="#9e00da"></stop><stop offset="0.22" stop-color="#9300dc"></stop><stop offset="0.31" stop-color="#8200de"></stop><stop offset="0.4" stop-color="#6900e1"></stop><stop offset="0.49" stop-color="#4900e5"></stop><stop offset="0.57" stop-color="#2200ea"></stop><stop offset="0.61" stop-color="#0b00ed"></stop><stop offset="0.74" stop-color="#0a0fd2"></stop><stop offset="0.91" stop-color="#091eb7"></stop><stop offset="1" stop-color="#0924ad"></stop></linearGradient><linearGradient gradientUnits="userSpaceOnUse" id="未命名的渐变_389" node-id="83" spreadMethod="pad" x1="456.86" x2="789.67" y1="556.26" y2="556.26"><stop offset="0" stop-color="#00e1ed"></stop><stop offset="0.01" stop-color="#00daeb"></stop><stop offset="0.08" stop-color="#039ad5"></stop><stop offset="0.14" stop-color="#0667c4"></stop><stop offset="0.19" stop-color="#0842b7"></stop><stop offset="0.23" stop-color="#092cb0"></stop><stop offset="0.26" stop-color="#0924ad"></stop><stop offset="0.55" stop-color="#00e1ed"></stop><stop offset="0.61" stop-color="#1fb6e9"></stop><stop offset="0.72" stop-color="#4d76e4"></stop><stop offset="0.81" stop-color="#7143e0"></stop><stop offset="0.89" stop-color="#8b1edd"></stop><stop offset="0.96" stop-color="#9b08db"></stop><stop offset="1" stop-color="#a100da"></stop></linearGradient><linearGradient gradientUnits="userSpaceOnUse" id="未命名的渐变_71" node-id="98" spreadMethod="pad" x1="522.06" x2="522.06" y1="386.65" y2="756.68"><stop offset="0" stop-color="#00fdf5"></stop><stop offset="0.19" stop-color="#01d2ef"></stop><stop offset="0.61" stop-color="#0567e0"></stop><stop offset="1" stop-color="#0800d1"></stop></linearGradient><linearGradient gradientUnits="userSpaceOnUse" id="未命名的渐变_336" node-id="103" spreadMethod="pad" x1="622.42" x2="410.89" y1="791.17" y2="424.79"><stop offset="0" stop-color="#6adcf8"></stop><stop offset="0.13" stop-color="#4da8e2"></stop><stop offset="0.26" stop-color="#3177cc"></stop><stop offset="0.38" stop-color="#1d53bd"></stop><stop offset="0.48" stop-color="#103db3"></stop><stop offset="0.54" stop-color="#0c35b0"></stop><stop offset="0.61" stop-color="#0f39b1"></stop><stop offset="0.67" stop-color="#1745b5"></stop><stop offset="0.74" stop-color="#2559ba"></stop><stop offset="0.81" stop-color="#3976c3"></stop><stop offset="0.87" stop-color="#529acd"></stop><stop offset="0.94" stop-color="#70c6da"></stop><stop offset="1" stop-color="#92f7e8"></stop></linearGradient><linearGradient gradientUnits="userSpaceOnUse" id="未命名的渐变_382" node-id="117" spreadMethod="pad" x1="463.96" x2="463.96" y1="688.14" y2="516.93"><stop offset="0" stop-color="#d3e7fb"></stop><stop offset="1" stop-color="#4e82f9"></stop></linearGradient><linearGradient gradientUnits="userSpaceOnUse" id="未命名的渐变_382-2" node-id="120" spreadMethod="pad" x1="532.81" x2="532.81" y1="679.47" y2="507.99"><stop offset="0" stop-color="#d3e7fb"></stop><stop offset="1" stop-color="#4e82f9"></stop></linearGradient><linearGradient gradientUnits="userSpaceOnUse" id="未命名的渐变_7" node-id="121" spreadMethod="pad" x1="512.83" x2="512.83" y1="891.24" y2="92.24"><stop offset="0" stop-color="#04ffe9"></stop><stop offset="0.19" stop-color="#02c8f0"></stop><stop offset="0.37" stop-color="#0094f6"></stop><stop offset="0.53" stop-color="#1c85ca" stop-opacity="0.71"></stop><stop offset="0.76" stop-color="#407191" stop-opacity="0.33"></stop><stop offset="0.92" stop-color="#57656e" stop-opacity="0.09"></stop><stop offset="1" stop-color="#606060" stop-opacity="0"></stop></linearGradient><linearGradient gradientUnits="userSpaceOnUse" id="未命名的渐变_522" node-id="129" spreadMethod="pad" x1="336.15" x2="336.15" y1="253.12" y2="279.06"><stop offset="0" stop-color="#0094f6"></stop><stop offset="0.5" stop-color="#02c8f0"></stop><stop offset="1" stop-color="#04ffe9"></stop></linearGradient><linearGradient gradientUnits="userSpaceOnUse" id="未命名的渐变_522-2" node-id="133" spreadMethod="pad" x1="698.07" x2="698.07" y1="374.16" y2="391.46"><stop offset="0" stop-color="#0094f6"></stop><stop offset="0.5" stop-color="#02c8f0"></stop><stop offset="1" stop-color="#04ffe9"></stop></linearGradient><linearGradient gradientUnits="userSpaceOnUse" id="未命名的渐变_522-3" node-id="134" spreadMethod="pad" x1="245.66" x2="245.66" y1="581.68" y2="607.61"><stop offset="0" stop-color="#0094f6"></stop><stop offset="0.5" stop-color="#02c8f0"></stop><stop offset="1" stop-color="#04ffe9"></stop></linearGradient><linearGradient gradientUnits="userSpaceOnUse" id="未命名的渐变_522-4" node-id="135" spreadMethod="pad" x1="771.32" x2="771.32" y1="594.64" y2="629.23"><stop offset="0" stop-color="#0094f6"></stop><stop offset="0.5" stop-color="#02c8f0"></stop><stop offset="1" stop-color="#04ffe9"></stop></linearGradient><linearGradient gradientUnits="userSpaceOnUse" id="未命名的渐变_522-5" node-id="136" spreadMethod="pad" x1="603.28" x2="603.28" y1="767.57" y2="784.86"><stop offset="0" stop-color="#0094f6"></stop><stop offset="0.5" stop-color="#02c8f0"></stop><stop offset="1" stop-color="#04ffe9"></stop></linearGradient><clipPath id="clip-path" node-id="63"><path d="M 379.08 470.15 L 343.43 489.55 C 360.85 480.07 381.43 476.05 403.52 479.15 L 439.18 459.75 C 417.12 456.65 396.51 460.67 379.08 470.15 Z" fill="#000000" fill-rule="nonzero" node-id="496" stroke="none" target-height="32.899994" target-width="95.75" target-x="343.43" target-y="456.65"></path></clipPath></defs><g node-id="574"><path d="M 911.72 804.47 L 713.00 918.00 C 690.87 930.65 634.27 935.43 586.58 928.68 L 158.53 868.10 C 110.84 861.35 90.16 845.62 112.29 832.97 L 311.00 719.42 C 333.13 706.77 389.70 701.99 437.39 708.74 L 865.48 769.34 C 913.13 776.09 933.85 791.82 911.72 804.47 Z" fill="none" group-id="1" node-id="502" stroke="#00fff2" stroke-linecap="butt" stroke-opacity="0.31" stroke-width="1" target-height="233.44" target-width="843.68994" target-x="90.16" target-y="701.99"></path></g><path d="M 754.59 894.27 L 713.00 918.00 C 690.87 930.65 634.27 935.43 586.58 928.68 L 572.43 926.68" fill="none" node-id="505" stroke="#00ffff" stroke-linecap="butt" stroke-width="1" target-height="41.159973" target-width="182.16003" target-x="572.43" target-y="894.27"></path><path d="M 813.29 762.00 L 865.44 769.38 C 913.13 776.13 933.85 791.86 911.72 804.51 L 880.72 822.22" fill="none" node-id="507" stroke="#00ffff" stroke-linecap="butt" stroke-width="1" target-height="60.21997" target-width="120.56" target-x="813.29" target-y="762"></path><path d="M 210.00 875.39 L 158.49 868.10 C 110.80 861.35 90.12 845.62 112.25 832.97 L 186.51 790.53" fill="none" node-id="509" stroke="#00ffff" stroke-linecap="butt" stroke-width="1" target-height="84.859985" target-width="119.88" target-x="90.12" target-y="790.53"></path><path d="M 827.00 741.92 C 826.96 742.38 826.86 742.83 826.71 743.27 C 826.56 743.71 826.38 744.14 826.15 744.54 C 825.91 744.96 825.63 745.36 825.33 745.74 C 825.00 746.14 824.65 746.52 824.27 746.88 C 823.88 747.26 823.45 747.63 822.98 748.01 C 822.51 748.39 821.98 748.75 821.41 749.12 C 820.84 749.49 820.28 749.82 819.65 750.12 L 661.33 837.91 L 661.24 837.96 C 660.54 838.34 659.81 838.72 659.03 839.08 C 658.25 839.44 657.34 839.84 656.43 840.20 C 655.52 840.56 654.43 840.99 653.29 841.36 C 652.03 841.78 650.72 842.19 649.35 842.58 C 647.67 843.05 645.90 843.50 644.06 843.92 C 641.37 844.53 638.51 845.07 635.53 845.55 C 628.24 846.69 620.90 847.43 613.53 847.78 C 611.31 847.89 609.05 847.97 606.78 848.02 C 605.07 848.06 603.35 848.08 601.62 848.08 C 600.10 848.08 598.62 848.08 597.05 848.08 C 595.48 848.08 594.18 848.08 592.75 847.98 C 591.32 847.88 589.94 847.88 588.53 847.81 C 587.12 847.74 585.74 847.66 584.35 847.57 C 582.96 847.48 581.59 847.38 580.21 847.27 L 576.11 846.90 C 574.74 846.76 573.38 846.61 572.03 846.45 C 570.68 846.29 569.32 846.12 567.95 845.94 C 566.58 845.75 565.21 845.55 563.86 845.34 L 563.86 845.34 L 238.46 794.34 C 237.05 794.12 235.66 793.89 234.31 793.64 C 232.96 793.39 231.46 793.11 230.10 792.83 C 228.74 792.55 227.15 792.21 225.74 791.83 C 224.12 791.45 222.57 791.05 221.08 790.64 C 219.21 790.12 217.44 789.58 215.77 789.02 C 203.77 785.02 197.26 780.02 197.37 774.95 L 196.37 818.74 C 196.25 823.74 202.80 828.74 214.76 832.81 C 216.43 833.37 218.20 833.91 220.07 834.43 C 221.56 834.84 223.07 835.24 224.74 835.62 C 226.14 835.96 227.59 836.29 229.09 836.62 C 230.46 836.91 231.86 837.18 233.31 837.44 C 234.76 837.70 236.04 837.91 237.45 838.13 L 562.85 889.13 L 562.85 889.13 C 564.21 889.34 565.57 889.54 566.94 889.73 C 568.31 889.92 569.65 890.08 571.02 890.24 C 572.39 890.40 573.74 890.55 575.10 890.69 C 576.46 890.83 577.83 890.95 579.20 891.06 C 580.57 891.17 581.96 891.27 583.35 891.36 L 587.52 891.60 C 588.93 891.67 590.34 891.73 591.74 891.77 C 593.14 891.81 594.61 891.85 596.04 891.87 C 597.47 891.89 599.04 891.87 600.61 891.87 C 602.34 891.87 604.06 891.87 605.77 891.80 C 608.05 891.75 610.30 891.67 612.52 891.56 C 619.89 891.22 627.23 890.47 634.52 889.33 C 637.51 888.85 640.36 888.31 643.06 887.70 C 644.90 887.28 646.66 886.84 648.34 886.36 C 649.71 885.97 651.03 885.57 652.28 885.14 C 653.53 884.71 654.42 884.39 655.42 883.99 C 656.42 883.59 657.20 883.25 658.03 882.86 C 658.86 882.47 659.54 882.12 660.23 881.74 L 660.33 881.74 L 818.62 794.00 C 819.25 793.66 819.84 793.31 820.38 792.95 C 820.92 792.59 821.47 792.21 821.95 791.84 C 822.40 791.49 822.84 791.11 823.25 790.71 C 823.60 790.35 823.94 789.97 824.25 789.57 C 824.55 789.19 824.83 788.79 825.07 788.37 C 825.30 787.97 825.49 787.54 825.64 787.10 C 825.79 786.66 825.88 786.21 825.92 785.75 C 825.92 785.62 825.92 785.50 825.92 785.37 L 826.92 741.58 C 827.00 741.67 827.00 741.79 827.00 741.92 Z" fill="url(#未命名的渐变_131)" fill-rule="nonzero" node-id="511" stroke="url(#未命名的渐变_144)" stroke-linecap="butt" stroke-width="0.5" target-height="150.31" target-width="630.75" target-x="196.25" target-y="741.58"></path><path d="M 819.61 750.17 L 661.33 837.91 C 643.70 847.68 600.00 851.00 563.79 845.30 L 238.39 794.30 C 202.14 788.61 187.04 776.09 204.67 766.30 L 362.94 678.56 C 380.58 668.79 424.26 665.47 460.51 671.16 L 785.90 722.16 C 822.15 727.87 837.24 740.40 819.61 750.17 Z" fill="url(#未命名的渐变_169)" fill-rule="nonzero" node-id="513" stroke="url(#未命名的渐变_74)" stroke-linecap="butt" stroke-width="0.5" target-height="185.53003" target-width="650.2" target-x="187.04" target-y="665.47"></path><path d="M 821.61 713.27 L 663.33 801.00 C 645.70 810.78 602.04 814.08 565.79 808.40 L 240.39 757.40 C 204.14 751.72 189.04 739.19 206.67 729.40 L 364.94 641.67 C 382.58 631.89 426.26 628.58 462.51 634.26 L 787.90 685.26 C 824.15 691.00 839.24 703.49 821.61 713.27 Z" fill="url(#未命名的渐变_136)" fill-rule="nonzero" node-id="515" stroke="url(#未命名的渐变_92)" stroke-linecap="butt" stroke-width="1" target-height="185.5" target-width="650.2" target-x="189.04" target-y="628.58"></path><path d="M 819.61 713.27 L 661.33 801.00 C 643.70 810.78 600.04 814.08 563.79 808.40 L 238.39 757.40 C 202.14 751.72 187.04 739.19 204.67 729.40 L 362.94 641.67 C 380.58 631.89 424.26 628.58 460.51 634.26 L 785.90 685.26 C 822.15 691.00 837.24 703.49 819.61 713.27 Z" fill="none" group-id="2" node-id="519" stroke="url(#未命名的渐变_347)" stroke-linecap="butt" stroke-opacity="0.82" stroke-width="1" target-height="185.5" target-width="650.2" target-x="187.04" target-y="628.58"></path><path d="M 379.08 470.15 L 343.43 489.55 C 360.85 480.07 381.43 476.05 403.52 479.15 L 439.18 459.75 C 417.12 456.65 396.51 460.67 379.08 470.15 Z" fill="url(#未命名的渐变_76)" fill-opacity="0.82" fill-rule="nonzero" group-id="3" node-id="524" stroke="none" target-height="32.899994" target-width="95.75" target-x="343.43" target-y="456.65"></path><g clip-path="url(#clip-path)" group-id="3,7" node-id="528"><path d="M 403.52 479.15 L 439.18 459.75 C 426.26 457.87 413.10 458.55 400.44 461.75 L 364.79 481.14 C 377.44 477.94 390.60 477.26 403.52 479.14" fill="url(#未命名的渐变_76-3)" fill-opacity="0.82" fill-rule="nonzero" group-id="3,7,8" node-id="530" stroke="url(#未命名的渐变_80-2)" stroke-linecap="butt" stroke-opacity="0.82" stroke-width="0.5" target-height="23.27002" target-width="74.389984" target-x="364.79" target-y="457.87"></path><path d="M 364.79 481.14 L 400.44 461.75 C 394.27 463.34 388.27 465.55 382.55 468.36 L 346.89 487.76 C 352.62 484.95 358.61 482.73 364.79 481.14" fill="url(#未命名的渐变_76-4)" fill-opacity="0.82" fill-rule="nonzero" group-id="3,7,8" node-id="532" stroke="url(#未命名的渐变_80-3)" stroke-linecap="butt" stroke-opacity="0.82" stroke-width="0.5" target-height="26.01001" target-width="53.549988" target-x="346.89" target-y="461.75"></path><path d="M 346.89 487.76 L 382.55 468.36 C 381.38 468.94 380.23 469.53 379.08 470.15 L 343.43 489.55 C 344.57 488.93 345.72 488.33 346.89 487.76" fill="url(#未命名的渐变_76-5)" fill-opacity="0.82" fill-rule="nonzero" group-id="3,7,8" node-id="534" stroke="url(#未命名的渐变_80-4)" stroke-linecap="butt" stroke-opacity="0.82" stroke-width="0.5" target-height="21.190002" target-width="39.119995" target-x="343.43" target-y="468.36"></path></g><path d="M 379.08 470.15 L 343.43 489.55 C 360.85 480.07 381.43 476.05 403.52 479.15 L 439.18 459.75 C 417.12 456.65 396.51 460.67 379.08 470.15 Z" fill="none" group-id="3" node-id="538" stroke="url(#未命名的渐变_80)" stroke-linecap="butt" stroke-opacity="0.82" stroke-width="0.5" target-height="32.899994" target-width="95.75" target-x="343.43" target-y="456.65"></path><path d="M 634.84 511.66 L 670.50 492.26 C 662.08 429.89 613.62 376.59 554.64 368.26 L 519.00 387.70 C 578.00 396.00 626.42 449.29 634.84 511.66 Z" fill="none" node-id="541" stroke="none" target-height="143.4" target-width="151.5" target-x="519" target-y="368.26"></path><path d="M 780.77 582.92 C 778.37 576.39 775.51 570.04 772.21 563.92 C 769.44 558.77 766.36 553.79 763.00 549.00 C 759.85 544.48 756.44 540.14 752.80 536.00 C 749.17 531.89 745.31 528.00 741.24 524.33 C 736.92 520.43 732.35 516.82 727.57 513.51 C 721.77 509.51 715.64 505.99 709.26 503.00 C 698.91 498.11 687.89 494.79 676.56 493.16 L 670.50 492.31 C 669.06 481.66 666.46 471.20 662.75 461.12 C 660.27 454.34 657.30 447.74 653.88 441.38 C 648.35 431.09 641.66 421.47 633.94 412.71 C 630.22 408.49 626.26 404.48 622.09 400.71 C 617.63 396.69 612.93 392.96 608.00 389.54 C 602.05 385.42 595.77 381.80 589.22 378.71 C 578.29 373.52 566.63 370.01 554.65 368.30 C 552.11 367.94 549.59 367.71 547.09 367.54 L 545.56 367.43 C 543.14 367.30 540.74 367.24 538.36 367.28 L 537.10 367.28 C 534.86 367.34 532.64 367.47 530.45 367.67 L 529.58 367.74 C 527.24 367.97 524.93 368.30 522.64 368.74 C 522.15 368.83 521.64 368.91 521.16 369.01 C 519.00 369.41 516.86 369.86 514.75 370.41 L 514.52 370.48 C 511.59 371.24 508.73 372.16 505.91 373.18 C 505.12 373.47 504.35 373.80 503.57 374.11 C 501.57 374.91 499.57 375.76 497.57 376.69 C 497.13 376.90 496.66 377.05 496.23 377.27 C 495.02 377.86 493.83 378.48 492.65 379.12 L 457.00 398.51 C 458.61 397.63 460.26 396.86 461.92 396.08 C 463.92 395.15 465.92 394.30 467.92 393.50 C 468.70 393.19 469.47 392.85 470.26 392.57 C 473.07 391.57 475.93 390.63 478.86 389.87 C 481.05 389.30 483.26 388.80 485.51 388.39 L 486.98 388.13 C 489.27 387.73 491.58 387.40 493.93 387.13 L 494.79 387.06 C 496.99 386.86 499.20 386.74 501.43 386.68 L 502.71 386.68 C 505.09 386.68 507.49 386.68 509.91 386.84 L 511.43 386.94 C 513.93 387.12 516.43 387.35 518.99 387.71 C 530.97 389.42 542.63 392.93 553.57 398.11 C 560.11 401.21 566.39 404.83 572.34 408.95 C 577.27 412.37 581.98 416.09 586.44 420.11 C 590.62 423.88 594.58 427.88 598.29 432.11 C 602.02 436.33 605.51 440.76 608.74 445.37 C 612.21 450.32 615.38 455.46 618.24 460.78 C 621.66 467.14 624.62 473.73 627.10 480.51 C 630.81 490.60 633.41 501.06 634.85 511.71 L 640.91 512.56 C 652.24 514.18 663.26 517.50 673.61 522.40 C 679.99 525.40 686.11 528.93 691.91 532.95 C 696.69 536.27 701.26 539.89 705.59 543.78 C 713.75 551.14 721.04 559.40 727.34 568.40 C 734.72 578.91 740.70 590.34 745.13 602.40 C 750.77 617.64 753.69 633.75 753.77 650.00 C 753.85 693.13 732.87 728.22 701.34 745.37 L 737.00 725.89 C 768.54 708.74 789.52 673.65 789.44 630.51 C 789.36 614.26 786.42 598.15 780.77 582.92 Z" fill="url(#未命名的渐变_73)" fill-opacity="0.82" fill-rule="nonzero" group-id="4" node-id="545" stroke="url(#未命名的渐变_389)" stroke-linecap="butt" stroke-opacity="0.82" stroke-width="0.5" target-height="378.13" target-width="332.52002" target-x="457" target-y="367.24"></path><path d="M 701.33 745.28 L 737.00 725.89 C 768.54 708.73 789.52 673.65 789.44 630.51 C 789.31 563.61 738.56 501.82 676.58 493.11 L 640.92 512.51 C 702.92 521.22 753.66 583.00 753.78 649.91 C 753.84 693.00 732.86 728.13 701.33 745.28 Z" fill="none" node-id="548" stroke="none" target-height="252.17004" target-width="148.60004" target-x="640.92" target-y="493.11"></path><path d="M 519.00 387.70 C 460.80 379.52 411.74 419.93 403.54 479.15 C 341.53 470.44 291.00 518.00 290.36 584.78 C 290.49 651.69 341.23 713.47 403.22 722.18 L 641.35 755.65 C 703.35 764.36 753.88 716.81 753.76 649.91 C 753.64 583.01 702.89 521.22 640.90 512.51 L 634.84 511.66 C 626.42 449.29 578.00 396.00 519.00 387.70 Z" fill="url(#未命名的渐变_71)" fill-rule="nonzero" node-id="550" stroke="url(#未命名的渐变_336)" stroke-linecap="butt" stroke-width="0.5" target-height="384.84" target-width="463.52002" target-x="290.36" target-y="379.52"></path><path d="M 425.17 557.58 C 432.16 551.04 441.78 548.09 451.24 549.58 C 460.68 550.91 470.14 556.11 477.32 564.88 L 522.00 619.30 L 543.11 599.44 L 498.46 545.00 C 485.20 529.30 468.00 520.00 450.89 517.55 C 433.78 515.10 416.78 519.69 403.95 531.74 C 378.32 556.74 378.40 602.39 404.14 633.74 L 448.84 688.13 L 470.00 668.28 L 425.32 613.87 C 410.88 596.34 410.83 571.07 425.17 557.58 Z" fill="url(#未命名的渐变_382)" fill-rule="nonzero" node-id="552" stroke="none" target-height="173.03003" target-width="164.78998" target-x="378.32" target-y="515.1"></path><path d="M 593.00 562.39 L 548.27 508.00 L 527.14 527.86 L 571.84 582.28 C 586.21 599.78 586.26 625.07 571.94 638.57 C 564.95 645.11 555.33 648.06 545.88 646.57 C 536.43 645.24 526.97 640.04 519.77 631.27 L 475.09 576.88 L 454.00 596.69 L 498.70 651.11 C 511.57 666.78 528.21 676.46 545.60 678.91 C 562.62 681.38 579.84 676.00 592.43 664.28 C 618.05 640.15 618.00 594.45 593.00 562.39 Z" fill="url(#未命名的渐变_382-2)" fill-rule="nonzero" node-id="554" stroke="none" target-height="173.38" target-width="164.04999" target-x="454" target-y="508"></path><path d="M 829.64 92.62 C 829.60 93.08 829.51 93.53 829.36 93.97 C 829.21 94.41 829.02 94.84 828.79 95.24 C 828.55 95.66 828.27 96.06 827.97 96.44 C 827.65 96.85 827.30 97.23 826.92 97.59 C 826.53 97.96 826.10 98.34 825.63 98.71 C 825.16 99.08 824.63 99.46 824.06 99.83 C 823.49 100.20 822.94 100.53 822.31 100.83 L 660.05 188.73 L 659.96 188.78 C 659.26 189.16 658.53 189.54 657.76 189.90 C 656.99 190.26 656.07 190.66 655.16 191.03 C 654.25 191.40 653.16 191.81 652.02 192.18 C 650.88 192.55 649.46 193.02 648.09 193.40 C 646.41 193.88 644.65 194.33 642.82 194.74 C 640.13 195.35 637.28 195.90 634.30 196.38 C 627.01 197.53 619.67 198.27 612.30 198.61 C 610.08 198.72 607.83 198.81 605.56 198.86 C 603.86 198.86 602.14 198.86 600.41 198.92 L 595.85 198.92 C 594.42 198.92 592.99 198.86 591.56 198.81 C 590.13 198.76 588.75 198.71 587.35 198.64 C 585.95 198.57 584.57 198.50 583.18 198.40 C 581.79 198.30 580.42 198.21 579.05 198.10 C 577.68 197.99 576.31 197.86 574.95 197.73 C 573.59 197.60 572.23 197.44 570.88 197.28 C 569.53 197.12 568.16 196.95 566.81 196.77 C 565.46 196.59 564.08 196.38 562.73 196.17 L 562.73 196.17 L 238.00 145.00 C 236.59 144.78 235.21 144.55 233.86 144.31 C 232.42 144.05 231.02 143.78 229.65 143.50 C 228.28 143.22 226.71 142.87 225.31 142.50 C 223.69 142.12 222.14 141.72 220.65 141.31 C 218.78 140.79 217.02 140.25 215.36 139.69 C 203.42 135.69 196.88 130.62 197.00 125.60 L 196.00 818.00 C 195.89 823.00 202.42 828.07 214.36 832.10 C 216.02 832.66 217.79 833.20 219.66 833.72 C 221.15 834.13 222.66 834.53 224.31 834.91 C 225.71 835.25 227.16 835.58 228.66 835.91 C 230.02 836.20 231.43 836.47 232.87 836.73 C 234.31 836.99 235.59 837.20 237.00 837.42 L 561.72 888.52 L 561.72 888.52 C 563.07 888.73 564.43 888.93 565.80 889.11 C 567.17 889.29 568.50 889.47 569.87 889.63 C 571.24 889.79 572.58 889.94 573.94 890.08 L 578.03 890.45 L 582.17 890.75 C 583.55 890.84 584.94 890.92 586.33 890.99 C 587.72 891.06 589.14 891.12 590.55 891.16 C 591.96 891.20 593.41 891.24 594.83 891.26 C 596.25 891.28 597.83 891.26 599.40 891.26 C 601.12 891.26 602.84 891.26 604.55 891.19 C 606.82 891.14 609.06 891.06 611.28 890.95 C 618.65 890.61 625.99 889.87 633.28 888.72 C 636.28 888.24 639.10 887.72 641.79 887.08 C 643.63 886.67 645.39 886.22 647.07 885.74 C 648.43 885.36 649.75 884.95 651.00 884.52 C 652.09 884.15 653.14 883.77 654.13 883.37 C 655.12 882.97 655.91 882.63 656.73 882.24 C 657.55 881.85 658.24 881.50 658.93 881.12 L 659.03 881.07 L 821.32 793.20 C 821.95 792.85 822.54 792.50 823.08 792.14 C 823.62 791.78 824.16 791.40 824.64 791.03 C 825.09 790.68 825.53 790.30 825.94 789.90 C 826.29 789.54 826.63 789.16 826.94 788.76 C 827.24 788.38 827.51 787.98 827.75 787.56 C 827.98 787.16 828.17 786.73 828.32 786.29 C 828.47 785.85 828.57 785.40 828.61 784.94 C 828.61 784.81 828.61 784.68 828.61 784.55 L 829.61 92.24 C 829.66 92.36 829.65 92.49 829.64 92.62 Z" fill="url(#未命名的渐变_7)" fill-opacity="0.53" fill-rule="nonzero" group-id="5" node-id="558" stroke="none" target-height="799.04004" target-width="633.76996" target-x="195.89" target-y="92.24"></path><path d="M 349.08 266.09 C 349.08 273.25 343.29 279.06 336.15 279.06 C 329.01 279.06 323.22 273.25 323.22 266.09 C 323.22 258.93 329.01 253.12 336.15 253.12 C 343.29 253.12 349.08 258.93 349.08 266.09 Z" fill="url(#未命名的渐变_522)" fill-rule="nonzero" node-id="561" stroke="none" target-height="25.940002" target-width="25.859985" target-x="323.22" target-y="253.12"></path><path d="M 706.69 382.81 C 706.69 387.59 702.83 391.46 698.07 391.46 C 693.31 391.46 689.45 387.59 689.45 382.81 C 689.45 378.03 693.31 374.16 698.07 374.16 C 702.83 374.16 706.69 378.03 706.69 382.81 Z" fill="url(#未命名的渐变_522-2)" fill-rule="nonzero" node-id="563" stroke="none" target-height="17.299988" target-width="17.23999" target-x="689.45" target-y="374.16"></path><path d="M 258.59 594.64 C 258.59 601.80 252.80 607.61 245.66 607.61 C 238.52 607.61 232.73 601.80 232.73 594.64 C 232.73 587.48 238.52 581.67 245.66 581.67 C 252.80 581.67 258.59 587.48 258.59 594.64 Z" fill="url(#未命名的渐变_522-3)" fill-rule="nonzero" node-id="565" stroke="none" target-height="25.940002" target-width="25.86" target-x="232.73" target-y="581.67"></path><path d="M 788.55 611.94 C 788.55 621.49 780.84 629.23 771.32 629.23 C 761.80 629.23 754.09 621.49 754.09 611.94 C 754.09 602.39 761.80 594.65 771.32 594.65 C 780.84 594.65 788.55 602.39 788.55 611.94 Z" fill="url(#未命名的渐变_522-4)" fill-opacity="0.75" fill-rule="nonzero" group-id="6" node-id="569" stroke="none" target-height="34.579956" target-width="34.45996" target-x="754.09" target-y="594.65"></path><path d="M 611.90 776.22 C 611.90 781.00 608.04 784.87 603.28 784.87 C 598.52 784.87 594.66 781.00 594.66 776.22 C 594.66 771.44 598.52 767.57 603.28 767.57 C 608.04 767.57 611.90 771.44 611.90 776.22 Z" fill="url(#未命名的渐变_522-5)" fill-rule="nonzero" node-id="572" stroke="none" target-height="17.299988" target-width="17.240051" target-x="594.66" target-y="767.57"></path></svg>