<?xml version="1.0" standalone="no"?><!DOCTYPE svg PUBLIC "-//W3C//DTD SVG 1.1//EN" "http://www.w3.org/Graphics/SVG/1.1/DTD/svg11.dtd"><svg height="1200" node-id="1" sillyvg="true" template-height="1200" template-width="1200" version="1.1" viewBox="0 0 1200 1200" width="1200" xmlns="http://www.w3.org/2000/svg" xmlns:xlink="http://www.w3.org/1999/xlink"><defs node-id="84"><linearGradient gradientUnits="userSpaceOnUse" id="SVGID_1_" node-id="22" spreadMethod="pad" x1="166.7553" x2="1064.8267" y1="891.4786" y2="891.4786"><stop offset="0" stop-color="#405ab1"></stop><stop offset="1" stop-color="#0b1066"></stop></linearGradient></defs><g node-id="260"><path d="M 708.84 299.46 C 613.10 340.26 465.95 335.97 385.16 306.03 C 214.48 242.77 34.84 402.00 136.63 585.79 C 242.67 777.23 66.27 756.80 135.13 933.79 C 167.00 1015.71 336.76 1035.64 640.77 1003.65 C 929.36 973.28 1146.70 1023.35 1152.00 783.27 C 1145.19 671.62 1111.92 655.57 1127.04 497.22 C 1142.17 338.87 1071.84 144.76 708.84 299.46 Z" fill="#f3f6fa" fill-rule="nonzero" group-id="1" node-id="96" stroke="none" target-height="890.88" target-width="1117.16" target-x="34.84" target-y="144.76"></path><g node-id="261"><path d="M 302.05 458.66 L 140.43 458.66 C 121.97 458.66 107.01 443.70 107.01 425.24 L 107.01 263.62 C 107.01 245.16 121.97 230.20 140.43 230.20 L 302.05 230.20 C 320.51 230.20 335.47 245.16 335.47 263.62 L 335.47 425.24 C 335.47 443.70 320.51 458.66 302.05 458.66 Z" fill="#53c8ce" fill-rule="nonzero" group-id="1,2" node-id="100" stroke="none" target-height="228.46" target-width="228.45999" target-x="107.01" target-y="230.2"></path><g node-id="269"><path d="M 311.87 407.34 C 307.73 415.55 299.18 418.72 290.09 421.62 C 274.48 426.60 258.36 428.89 242.05 429.92 C 214.56 431.65 187.18 430.90 160.38 424.00 C 152.70 422.02 145.04 418.74 138.32 414.53 C 127.74 407.90 128.43 393.80 138.86 386.72 C 147.23 381.04 156.97 379.66 166.50 377.34 C 173.27 375.69 177.76 377.26 181.09 383.22 C 182.12 385.06 183.72 386.58 185.34 388.60 C 170.78 391.33 155.38 390.14 143.21 402.38 C 146.53 404.30 148.93 406.06 151.61 407.18 C 164.81 412.68 178.76 414.80 192.89 416.04 C 220.07 418.43 247.10 417.56 273.86 411.99 C 279.62 410.79 285.21 408.71 290.76 406.70 C 293.26 405.80 295.46 404.08 299.09 401.99 C 295.63 399.47 293.29 397.15 290.49 395.83 C 280.97 391.35 270.72 389.70 260.33 388.77 C 257.35 388.50 254.37 388.32 250.80 388.06 C 254.06 383.94 256.85 380.31 259.78 376.80 C 260.33 376.15 261.50 375.56 262.31 375.65 C 275.95 377.11 289.60 378.59 301.81 385.68 C 306.79 388.57 309.96 391.63 311.91 396.91 C 313.18 400.02 312.96 404.98 311.87 407.34 Z" fill="#ffffff" fill-rule="nonzero" group-id="1,2,10" node-id="104" stroke="none" target-height="56.089996" target-width="185.44" target-x="127.74" target-y="375.56"></path><path d="M 240.39 262.59 C 239.88 262.37 239.36 262.15 238.86 261.94 C 238.73 261.89 238.60 261.84 238.47 261.79 C 226.60 257.15 215.55 257.70 207.61 259.34 C 202.34 260.92 196.99 262.34 192.25 264.90 C 169.10 277.40 160.01 302.24 167.68 329.68 C 176.18 360.12 195.82 382.82 218.23 403.67 C 229.98 394.47 248.51 372.52 257.28 357.22 C 263.33 346.67 268.21 335.65 270.74 323.64 C 276.68 295.39 261.82 272.04 240.39 262.59 Z M 218.16 340.58 C 202.04 340.25 188.96 326.90 189.25 311.08 C 189.55 295.07 203.03 281.93 218.87 282.21 C 234.85 282.49 247.95 295.96 247.71 311.86 C 247.48 327.99 234.19 340.91 218.16 340.58 Z" fill="#ffffff" fill-rule="nonzero" group-id="1,2,10" node-id="106" stroke="none" target-height="146.52002" target-width="116.67" target-x="160.01" target-y="257.15"></path></g></g><g node-id="262"><g node-id="270"><path d="M 627.93 203.30 L 478.38 203.30 C 470.04 203.30 463.28 210.34 463.28 219.02 L 463.28 313.72 C 463.28 322.40 470.04 329.44 478.38 329.44 L 576.24 329.44 L 608.25 360.53 C 612.15 364.32 618.52 361.44 618.52 355.88 L 618.52 329.44 L 627.93 329.44 C 636.27 329.44 643.03 322.40 643.03 313.72 L 643.03 219.02 C 643.03 210.34 636.27 203.30 627.93 203.30 Z" fill="#0b1066" fill-opacity="0.19" fill-rule="nonzero" group-id="1,3,11" node-id="114" stroke="none" target-height="161.02" target-width="179.75003" target-x="463.28" target-y="203.3"></path></g><path d="M 617.09 203.30 L 477.38 203.30 C 469.59 203.30 463.28 209.61 463.28 217.40 L 463.28 302.35 C 463.28 310.14 469.59 316.45 477.38 316.45 L 568.79 316.45 L 598.69 344.34 C 602.34 347.74 608.28 345.15 608.28 340.17 L 608.28 316.45 L 617.07 316.45 C 624.86 316.45 631.17 310.14 631.17 302.35 L 631.17 217.40 C 631.19 209.62 624.88 203.30 617.09 203.30 Z" fill="#f5634a" fill-rule="nonzero" group-id="1,3" node-id="117" stroke="none" target-height="144.43999" target-width="167.91" target-x="463.28" target-y="203.3"></path><path d="M 483.74 249.43 L 515.60 249.43 L 515.60 267.35 L 483.74 267.35 Z" fill="#ffffff" fill-rule="nonzero" group-id="1,3" node-id="119" stroke="none" target-height="17.920013" target-width="31.859985" target-x="483.74" target-y="249.43"></path><path d="M 531.86 249.43 L 563.72 249.43 L 563.72 267.35 L 531.86 267.35 Z" fill="#ffffff" fill-rule="nonzero" group-id="1,3" node-id="121" stroke="none" target-height="17.920013" target-width="31.859985" target-x="531.86" target-y="249.43"></path><path d="M 579.98 249.43 L 611.84 249.43 L 611.84 267.35 L 579.98 267.35 Z" fill="#ffffff" fill-rule="nonzero" group-id="1,3" node-id="123" stroke="none" target-height="17.920013" target-width="31.860046" target-x="579.98" target-y="249.43"></path></g><g node-id="263"><path d="M 927.42 416.87 L 306.01 416.87 C 293.12 416.87 282.68 427.32 282.68 440.20 L 282.68 836.79 C 282.68 849.68 293.13 860.12 306.01 860.12 L 527.85 860.12 L 527.85 882.90 L 705.58 882.90 L 705.58 860.12 L 927.42 860.12 C 940.31 860.12 950.75 849.67 950.75 836.79 L 950.75 440.20 C 950.75 427.32 940.30 416.87 927.42 416.87 Z" fill="#6179ef" fill-rule="nonzero" group-id="1,4" node-id="128" stroke="none" target-height="466.03003" target-width="668.07" target-x="282.68" target-y="416.87"></path><path d="M 917.94 828.85 L 315.23 828.85 C 314.43 828.85 313.78 828.20 313.78 827.40 L 313.78 449.58 C 313.78 448.78 314.43 448.13 315.23 448.13 L 917.94 448.13 C 918.74 448.13 919.39 448.78 919.39 449.58 L 919.39 827.40 C 919.38 828.21 918.74 828.85 917.94 828.85 Z" fill="#f1f6ff" fill-rule="nonzero" group-id="1,4" node-id="130" stroke="none" target-height="380.71997" target-width="605.61" target-x="313.78" target-y="448.13"></path><path d="M 1058.08 902.87 L 973.97 902.87 C 985.75 895.10 993.54 881.76 993.54 866.59 L 993.54 866.59 L 238.04 866.59 L 238.04 866.59 C 238.04 881.76 245.83 895.10 257.61 902.87 L 173.50 902.87 C 169.77 902.87 166.75 905.89 166.75 909.62 C 166.75 913.35 169.77 916.37 173.50 916.37 L 1058.07 916.37 C 1061.80 916.37 1064.82 913.35 1064.82 909.62 C 1064.83 905.89 1061.81 902.87 1058.08 902.87 Z" fill="url(#SVGID_1_)" fill-rule="nonzero" group-id="1,4" node-id="132" stroke="none" target-height="49.77997" target-width="898.07996" target-x="166.75" target-y="866.59"></path></g><path d="M 337.21 480.95 L 898.62 480.95 L 898.62 519.10 L 337.21 519.10 Z" fill="#856cf2" fill-rule="nonzero" group-id="1" node-id="135" stroke="none" target-height="38.149963" target-width="561.41003" target-x="337.21" target-y="480.95"></path><path d="M 525.26 542.73 L 898.63 542.73 L 898.63 807.09 L 525.26 807.09 Z" fill="#c1deff" fill-rule="nonzero" group-id="1" node-id="137" stroke="none" target-height="264.36005" target-width="373.37" target-x="525.26" target-y="542.73"></path><path d="M 337.21 542.73 L 496.19 542.73 L 496.19 807.09 L 337.21 807.09 Z" fill="#c1deff" fill-rule="nonzero" group-id="1" node-id="139" stroke="none" target-height="264.36005" target-width="158.98001" target-x="337.21" target-y="542.73"></path><path d="M 354.47 559.99 L 478.02 559.99 L 478.02 622.04 L 354.47 622.04 Z" fill="#f5634a" fill-rule="nonzero" group-id="1" node-id="141" stroke="none" target-height="62.049988" target-width="123.54999" target-x="354.47" target-y="559.99"></path><path d="M 543.35 559.99 L 757.82 559.99 L 757.82 661.74 L 543.35 661.74 Z" fill="#f3be3e" fill-rule="nonzero" group-id="1" node-id="143" stroke="none" target-height="101.75" target-width="214.47003" target-x="543.35" target-y="559.99"></path><path d="M 543.35 678.56 L 879.77 678.56 L 879.77 787.93 L 543.35 787.93 Z" fill="#f5634a" fill-rule="nonzero" group-id="1" node-id="145" stroke="none" target-height="109.369995" target-width="336.42004" target-x="543.35" target-y="678.56"></path><path d="M 774.63 559.99 L 879.78 559.99 L 879.78 661.74 L 774.63 661.74 Z" fill="#6179ef" fill-rule="nonzero" group-id="1" node-id="147" stroke="none" target-height="101.75" target-width="105.150024" target-x="774.63" target-y="559.99"></path><path d="M 354.47 642.93 L 478.02 642.93 L 478.02 704.98 L 354.47 704.98 Z" fill="#f5634a" fill-rule="nonzero" group-id="1" node-id="149" stroke="none" target-height="62.049988" target-width="123.54999" target-x="354.47" target-y="642.93"></path><path d="M 354.47 725.88 L 478.02 725.88 L 478.02 787.93 L 354.47 787.93 Z" fill="#f5634a" fill-rule="nonzero" group-id="1" node-id="151" stroke="none" target-height="62.049988" target-width="123.54999" target-x="354.47" target-y="725.88"></path><path d="M 1014.31 595.12 L 782.95 595.12 C 779.67 595.12 777.01 592.46 777.01 589.18 L 777.01 304.30 C 777.01 302.57 778.42 301.16 780.15 301.16 L 1017.11 301.16 C 1018.84 301.16 1020.25 302.57 1020.25 304.30 L 1020.25 589.18 C 1020.24 592.46 1017.59 595.12 1014.31 595.12 Z" fill="#0b1066" fill-opacity="0.19" fill-rule="nonzero" group-id="1,5,12" node-id="157" stroke="none" target-height="293.96" target-width="243.23999" target-x="777.01" target-y="301.16"></path><path d="M 1003.55 577.40 L 780.07 577.40 C 778.38 577.40 777.01 576.03 777.01 574.34 L 777.01 304.30 C 777.01 302.57 778.42 301.16 780.15 301.16 L 1003.48 301.16 C 1005.21 301.16 1006.62 302.57 1006.62 304.30 L 1006.62 574.34 C 1006.62 576.03 1005.25 577.40 1003.55 577.40 Z" fill="#ffffff" fill-rule="nonzero" group-id="1,5" node-id="160" stroke="none" target-height="276.24002" target-width="229.60999" target-x="777.01" target-y="301.16"></path><path d="M 1006.62 340.07 L 777.01 340.07 L 777.01 304.30 C 777.01 302.57 778.42 301.16 780.15 301.16 L 1003.48 301.16 C 1005.21 301.16 1006.62 302.57 1006.62 304.30 L 1006.62 340.07 Z" fill="#6252db" fill-rule="nonzero" group-id="1,5" node-id="162" stroke="none" target-height="38.910004" target-width="229.60999" target-x="777.01" target-y="301.16"></path><path d="M 889.43 453.51 L 965.80 453.51 C 965.80 411.33 931.61 377.14 889.43 377.14 C 847.25 377.14 813.06 411.33 813.06 453.51 C 813.06 471.14 819.09 487.32 829.12 500.24 L 889.43 453.51 Z" fill="#856cf2" fill-rule="nonzero" group-id="1,5" node-id="164" stroke="none" target-height="123.099976" target-width="152.73999" target-x="813.06" target-y="377.14"></path><path d="M 965.80 453.51 L 889.43 453.51 L 942.40 508.44 C 956.80 494.56 965.80 475.10 965.80 453.51 Z" fill="#face46" fill-rule="nonzero" group-id="1,5" node-id="166" stroke="none" target-height="54.929993" target-width="76.369995" target-x="889.43" target-y="453.51"></path><path d="M 889.43 453.51 L 829.12 500.24 C 843.09 518.24 864.88 529.87 889.43 529.87 C 910.02 529.87 928.67 521.68 942.40 508.44 L 889.43 453.51 Z" fill="#53c8ce" fill-rule="nonzero" group-id="1,5" node-id="168" stroke="none" target-height="76.359985" target-width="113.28003" target-x="829.12" target-y="453.51"></path><path d="M 794.73 318.72 L 813.07 318.72 L 813.07 325.76 L 794.73 325.76 Z" fill="#ffffff" fill-rule="nonzero" group-id="1,5" node-id="170" stroke="none" target-height="7.0400085" target-width="18.340027" target-x="794.73" target-y="318.72"></path><path d="M 823.34 318.72 L 841.68 318.72 L 841.68 325.76 L 823.34 325.76 Z" fill="#ffffff" fill-rule="nonzero" group-id="1,5" node-id="172" stroke="none" target-height="7.0400085" target-width="18.339966" target-x="823.34" target-y="318.72"></path><path d="M 851.96 318.72 L 870.30 318.72 L 870.30 325.76 L 851.96 325.76 Z" fill="#ffffff" fill-rule="nonzero" group-id="1,5" node-id="174" stroke="none" target-height="7.0400085" target-width="18.339966" target-x="851.96" target-y="318.72"></path><path d="M 1112.28 807.08 C 1112.28 852.99 1075.07 890.20 1029.16 890.20 C 983.25 890.20 946.04 852.99 946.04 807.08 C 946.04 761.17 983.25 723.96 1029.16 723.96 C 1075.07 723.96 1112.28 761.17 1112.28 807.08 Z" fill="#53c8ce" fill-rule="nonzero" group-id="1,6,13" node-id="181" stroke="none" target-height="166.23999" target-width="166.24005" target-x="946.04" target-y="723.96"></path><path d="M 1064.75 796.41 L 1039.83 796.41 L 1039.83 771.48 C 1039.83 765.58 1035.05 760.81 1029.16 760.81 C 1023.26 760.81 1018.49 765.59 1018.49 771.48 L 1018.49 796.41 L 993.57 796.41 C 987.67 796.41 982.90 801.19 982.90 807.08 C 982.90 812.97 987.68 817.75 993.57 817.75 L 1018.49 817.75 L 1018.49 842.67 C 1018.49 848.57 1023.27 853.34 1029.16 853.34 C 1035.06 853.34 1039.83 848.56 1039.83 842.67 L 1039.83 817.75 L 1064.75 817.75 C 1070.65 817.75 1075.42 812.97 1075.42 807.08 C 1075.42 801.19 1070.65 796.41 1064.75 796.41 Z" fill="#f7f8f8" fill-rule="nonzero" group-id="1,6" node-id="184" stroke="none" target-height="92.53003" target-width="92.52002" target-x="982.9" target-y="760.81"></path><path d="M 445.69 812.17 L 64.69 812.17 C 58.82 812.17 54.06 807.41 54.06 801.54 L 54.06 540.51 C 54.06 534.64 58.82 529.88 64.69 529.88 L 445.69 529.88 C 451.56 529.88 456.32 534.64 456.32 540.51 L 456.32 801.55 C 456.32 807.41 451.56 812.17 445.69 812.17 Z" fill="#0b1066" fill-opacity="0.19" fill-rule="nonzero" group-id="1,7,14" node-id="191" stroke="none" target-height="282.28998" target-width="402.26" target-x="54.06" target-y="529.88"></path><path d="M 427.70 789.68 L 64.69 789.68 C 58.82 789.68 54.06 784.92 54.06 779.05 L 54.06 540.51 C 54.06 534.64 58.82 529.88 64.69 529.88 L 427.70 529.88 C 433.57 529.88 438.33 534.64 438.33 540.51 L 438.33 779.06 C 438.33 784.93 433.57 789.68 427.70 789.68 Z" fill="#856cf2" fill-rule="nonzero" group-id="1,7" node-id="194" stroke="none" target-height="259.8" target-width="384.27" target-x="54.06" target-y="529.88"></path><path d="M 174.12 654.05 L 96.33 654.05 C 95.56 654.05 94.94 653.43 94.94 652.66 L 94.94 574.87 C 94.94 574.10 95.56 573.48 96.33 573.48 L 174.12 573.48 C 174.89 573.48 175.51 574.10 175.51 574.87 L 175.51 652.66 C 175.50 653.43 174.88 654.05 174.12 654.05 Z" fill="#f5634a" fill-rule="nonzero" group-id="1,7" node-id="196" stroke="none" target-height="80.57001" target-width="80.56999" target-x="94.94" target-y="573.48"></path><path d="M 285.09 654.05 L 207.30 654.05 C 206.53 654.05 205.91 653.43 205.91 652.66 L 205.91 574.87 C 205.91 574.10 206.53 573.48 207.30 573.48 L 285.09 573.48 C 285.86 573.48 286.48 574.10 286.48 574.87 L 286.48 652.66 C 286.48 653.43 285.85 654.05 285.09 654.05 Z" fill="#53c8ce" fill-rule="nonzero" group-id="1,7" node-id="198" stroke="none" target-height="80.57001" target-width="80.57001" target-x="205.91" target-y="573.48"></path><path d="M 397.85 654.05 L 320.06 654.05 C 319.29 654.05 318.67 653.43 318.67 652.66 L 318.67 574.87 C 318.67 574.10 319.29 573.48 320.06 573.48 L 397.85 573.48 C 398.62 573.48 399.24 574.10 399.24 574.87 L 399.24 652.66 C 399.24 653.43 398.61 654.05 397.85 654.05 Z" fill="#face46" fill-rule="nonzero" group-id="1,7" node-id="200" stroke="none" target-height="80.57001" target-width="80.56998" target-x="318.67" target-y="573.48"></path><path d="M 96.98 670.23 L 139.22 670.23 L 139.22 679.43 L 96.98 679.43 Z" fill="#ffffff" fill-rule="nonzero" group-id="1,7" node-id="202" stroke="none" target-height="9.200012" target-width="42.239998" target-x="96.98" target-y="670.23"></path><path d="M 96.98 694.25 L 176.70 694.25 L 176.70 703.45 L 96.98 703.45 Z" fill="#ffffff" fill-rule="nonzero" group-id="1,7" node-id="204" stroke="none" target-height="9.200012" target-width="79.71999" target-x="96.98" target-y="694.25"></path><path d="M 96.98 717.24 L 176.70 717.24 L 176.70 726.44 L 96.98 726.44 Z" fill="#ffffff" fill-rule="nonzero" group-id="1,7" node-id="206" stroke="none" target-height="9.200012" target-width="79.71999" target-x="96.98" target-y="717.24"></path><path d="M 96.98 741.60 L 176.70 741.60 L 176.70 750.80 L 96.98 750.80 Z" fill="#ffffff" fill-rule="nonzero" group-id="1,7" node-id="208" stroke="none" target-height="9.200012" target-width="79.71999" target-x="96.98" target-y="741.6"></path><path d="M 204.29 671.42 L 246.53 671.42 L 246.53 680.62 L 204.29 680.62 Z" fill="#ffffff" fill-rule="nonzero" group-id="1,7" node-id="210" stroke="none" target-height="9.200012" target-width="42.240005" target-x="204.29" target-y="671.42"></path><path d="M 204.29 695.44 L 284.01 695.44 L 284.01 704.64 L 204.29 704.64 Z" fill="#ffffff" fill-rule="nonzero" group-id="1,7" node-id="212" stroke="none" target-height="9.200012" target-width="79.72002" target-x="204.29" target-y="695.44"></path><path d="M 204.29 718.44 L 284.01 718.44 L 284.01 727.64 L 204.29 727.64 Z" fill="#ffffff" fill-rule="nonzero" group-id="1,7" node-id="214" stroke="none" target-height="9.200012" target-width="79.72002" target-x="204.29" target-y="718.44"></path><path d="M 204.29 742.79 L 284.01 742.79 L 284.01 751.99 L 204.29 751.99 Z" fill="#ffffff" fill-rule="nonzero" group-id="1,7" node-id="216" stroke="none" target-height="9.200012" target-width="79.72002" target-x="204.29" target-y="742.79"></path><path d="M 318.67 671.42 L 360.91 671.42 L 360.91 680.62 L 318.67 680.62 Z" fill="#ffffff" fill-rule="nonzero" group-id="1,7" node-id="218" stroke="none" target-height="9.200012" target-width="42.23999" target-x="318.67" target-y="671.42"></path><path d="M 318.67 695.44 L 398.39 695.44 L 398.39 704.64 L 318.67 704.64 Z" fill="#ffffff" fill-rule="nonzero" group-id="1,7" node-id="220" stroke="none" target-height="9.200012" target-width="79.72" target-x="318.67" target-y="695.44"></path><path d="M 318.67 718.44 L 398.39 718.44 L 398.39 727.64 L 318.67 727.64 Z" fill="#ffffff" fill-rule="nonzero" group-id="1,7" node-id="222" stroke="none" target-height="9.200012" target-width="79.72" target-x="318.67" target-y="718.44"></path><path d="M 318.67 742.79 L 398.39 742.79 L 398.39 751.99 L 318.67 751.99 Z" fill="#ffffff" fill-rule="nonzero" group-id="1,7" node-id="224" stroke="none" target-height="9.200012" target-width="79.72" target-x="318.67" target-y="742.79"></path><path d="M 943.55 853.99 L 949.32 887.83 L 965.66 879.75 L 961.43 847.07 Z" fill="#fbcfbc" fill-rule="nonzero" group-id="1,8" node-id="229" stroke="none" target-height="40.76001" target-width="22.109985" target-x="943.55" target-y="847.07"></path><path d="M 828.63 833.67 L 812.86 851.87 L 823.37 867.51 L 848.88 839.95 Z" fill="#fbcfbc" fill-rule="nonzero" group-id="1,8" node-id="231" stroke="none" target-height="33.840027" target-width="36.02002" target-x="812.86" target-y="833.67"></path><path d="M 965.66 867.45 C 965.66 867.45 962.78 878.41 946.43 874.08 C 943.35 891.87 939.38 900.07 934.89 906.48 C 930.40 912.89 935.66 916.22 935.66 916.22 L 979.12 880.97 L 965.66 867.45 Z" fill="#211d42" fill-rule="nonzero" group-id="1,8" node-id="233" stroke="none" target-height="48.76996" target-width="48.71997" target-x="930.4" target-y="867.45"></path><path d="M 833.27 856.81 C 833.27 856.81 823.75 860.72 815.87 844.56 C 807.03 848.79 797.80 853.79 783.57 852.25 C 778.57 851.48 775.11 853.98 773.38 858.79 C 790.69 865.14 830.87 877.06 830.87 877.06 L 833.27 856.81 Z" fill="#211d42" fill-rule="nonzero" group-id="1,8" node-id="235" stroke="none" target-height="32.5" target-width="59.890015" target-x="773.38" target-y="844.56"></path><path d="M 922.40 675.94 L 990.66 675.94 L 990.66 686.71 L 922.40 686.71 Z" fill="#3970ff" fill-rule="nonzero" group-id="1,8" node-id="237" stroke="none" target-height="10.77002" target-width="68.25995" target-x="922.4" target-y="675.94"></path><path d="M 935.02 697.02 L 821.70 835.46 L 845.80 850.33 L 944.76 754.96 Z" fill="#211d42" fill-rule="nonzero" group-id="1,8" node-id="239" stroke="none" target-height="153.31" target-width="123.06" target-x="821.7" target-y="697.02"></path><path d="M 1024.75 659.08 C 1024.75 659.08 926.30 677.03 913.48 700.10 C 900.66 723.17 908.27 729.84 939.54 861.62 C 964.15 857.52 965.64 857.01 965.64 857.01 L 948.86 731.39 C 948.86 731.39 1057.05 740.11 1064.23 711.91 C 1071.41 683.71 1062.18 659.10 1062.18 659.10 L 1024.75 659.10 Z" fill="#322d76" fill-rule="nonzero" group-id="1,8" node-id="241" stroke="none" target-height="202.53998" target-width="170.75006" target-x="900.66" target-y="659.08"></path><path d="M 1006.61 514.03 C 1006.61 514.03 1014.69 562.48 1035.45 555.95 C 1036.03 575.75 1035.45 584.98 1035.45 584.98 L 1063.33 561.33 C 1063.33 561.33 1054.29 549.02 1055.83 535.56 C 1057.37 522.10 1057.56 512.68 1045.64 509.03 C 1033.73 505.38 1006.61 514.03 1006.61 514.03 Z" fill="#fbcfbc" fill-rule="nonzero" group-id="1,8" node-id="243" stroke="none" target-height="79.599976" target-width="56.71997" target-x="1006.61" target-y="505.38"></path><path d="M 1033.44 524.61 C 1028.77 519.19 1019.02 521.53 1013.64 524.99 C 1008.26 528.45 991.82 530.66 987.97 516.24 C 984.12 501.82 997.58 495.19 1006.62 497.49 C 1015.66 499.79 1023.35 499.03 1027.96 496.05 C 1032.57 493.07 1043.53 492.88 1047.19 496.05 C 1050.84 499.22 1063.60 497.30 1063.34 511.91 C 1063.08 526.52 1062.19 527.93 1060.65 530.50 C 1059.11 533.06 1056.87 539.86 1056.93 542.23 C 1056.99 544.60 1054.05 542.94 1053.98 537.04 C 1053.92 531.14 1057.76 518.56 1049.75 518.51 C 1041.74 518.46 1042.64 531.15 1042.64 533.26 C 1042.64 535.37 1041.81 538.45 1039.24 533.77 C 1036.67 529.10 1035.65 527.17 1033.44 524.61 Z" fill="#10224f" fill-rule="nonzero" group-id="1,8" node-id="245" stroke="none" target-height="51.71997" target-width="79.47998" target-x="984.12" target-y="492.88"></path><path d="M 1081.80 604.98 C 1080.80 634.64 1073.72 668.82 1072.76 676.51 C 1071.80 684.20 1060.84 698.43 1046.23 688.05 C 1031.62 677.67 1027.00 674.40 1009.31 671.32 C 991.62 668.24 998.54 662.28 1001.81 649.40 C 1005.08 636.52 1024.24 591.14 1032.45 577.55 C 1040.65 563.96 1051.71 549.28 1057.97 550.85 C 1064.24 552.43 1082.95 570.89 1081.80 604.98 Z" fill="#f9bc00" fill-rule="nonzero" group-id="1,8" node-id="247" stroke="none" target-height="149.14996" target-width="91.329956" target-x="991.62" target-y="549.28"></path><path d="M 1044.49 587.29 L 1069.10 599.21 C 1069.10 599.21 1046.03 655.36 1034.97 661.51 C 1023.91 667.66 978.15 679.39 971.61 680.74 C 965.07 682.09 968.73 685.16 956.61 685.35 C 944.50 685.54 923.15 683.81 924.88 673.81 C 925.65 670.83 934.59 666.79 944.68 666.50 C 940.93 663.23 941.12 657.11 946.99 659.07 C 952.85 661.02 963.05 663.43 969.58 662.76 C 976.12 662.09 1016.02 651.64 1020.12 644.46 C 1024.24 637.29 1044.49 587.29 1044.49 587.29 Z" fill="#fbcfbc" fill-rule="nonzero" group-id="1,8" node-id="249" stroke="none" target-height="98.25" target-width="145.94995" target-x="923.15" target-y="587.29"></path><path d="M 921.24 685.37 L 899.90 600.18 L 907.55 598.25 L 929.13 682.28 Z" fill="#3970ff" fill-rule="nonzero" group-id="1,8" node-id="251" stroke="none" target-height="87.119995" target-width="29.22998" target-x="899.9" target-y="598.25"></path><path d="M 860.15 247.86 L 857.23 247.86 C 857.24 247.63 857.30 247.41 857.30 247.17 C 857.30 234.58 847.09 224.37 834.50 224.37 C 829.41 224.37 824.76 226.09 820.96 228.91 C 821.05 228.05 821.22 227.21 821.22 226.32 C 821.22 211.68 809.36 199.82 794.72 199.82 C 780.08 199.82 768.22 211.68 768.22 226.32 C 768.22 227.57 768.42 228.77 768.59 229.98 C 764.59 226.53 759.45 224.36 753.76 224.36 C 741.17 224.36 730.96 234.57 730.96 247.16 C 730.96 247.40 731.02 247.61 731.03 247.85 L 729.30 247.85 C 722.10 247.85 716.26 253.69 716.26 260.89 C 716.26 268.09 722.10 273.93 729.30 273.93 L 860.14 273.93 C 867.34 273.93 873.18 268.09 873.18 260.89 C 873.19 253.70 867.35 247.86 860.15 247.86 Z M 811.77 247.86 L 810.08 247.86 C 810.68 247.43 811.22 246.94 811.77 246.46 C 811.76 246.70 811.70 246.93 811.70 247.17 C 811.70 247.41 811.76 247.63 811.77 247.86 Z M 776.38 245.39 C 777.31 246.29 778.32 247.11 779.37 247.86 L 776.49 247.86 C 776.50 247.63 776.56 247.41 776.56 247.17 C 776.56 246.56 776.43 245.99 776.38 245.39 Z" fill="#d0e2ff" fill-rule="nonzero" group-id="1" node-id="254" stroke="none" target-height="74.109985" target-width="156.93" target-x="716.26" target-y="199.82"></path><path d="M 107.00 920.41 C 91.24 920.41 78.42 907.59 78.42 891.83 C 78.42 876.07 91.24 863.25 107.00 863.25 C 122.76 863.25 135.58 876.07 135.58 891.83 C 135.58 907.59 122.76 920.41 107.00 920.41 Z M 107.00 870.37 C 95.17 870.37 85.54 880.00 85.54 891.83 C 85.54 903.66 95.17 913.29 107.00 913.29 C 118.83 913.29 128.46 903.66 128.46 891.83 C 128.47 880.00 118.84 870.37 107.00 870.37 Z" fill="#6179ef" fill-rule="nonzero" group-id="1,9" node-id="258" stroke="none" target-height="57.159973" target-width="57.160004" target-x="78.42" target-y="863.25"></path></g></svg>