<?xml version="1.0" standalone="no"?><!DOCTYPE svg PUBLIC "-//W3C//DTD SVG 1.1//EN" "http://www.w3.org/Graphics/SVG/1.1/DTD/svg11.dtd"><svg t="1678719320460" class="icon" viewBox="0 0 1024 1024" version="1.1" xmlns="http://www.w3.org/2000/svg" p-id="11746" xmlns:xlink="http://www.w3.org/1999/xlink" width="32" height="32"><path d="M966.688 354.208H878.4v58.88h88.256c13.92 0 25.312 11.392 25.312 25.28a25.408 25.408 0 0 1-25.312 25.344H878.4v58.88h88.256c13.92 0 25.312 11.392 25.312 25.312a25.408 25.408 0 0 1-25.312 25.312H878.4v58.88h88.256c13.92 0 25.312 11.392 25.312 25.312a25.408 25.408 0 0 1-25.312 25.344H878.4v71.904a88.704 88.704 0 0 1-88.64 88.64h-104.8v91.776a25.408 25.408 0 0 1-25.312 25.28 25.408 25.408 0 0 1-25.344-25.28v-91.808h-58.88v91.808a25.408 25.408 0 0 1-25.28 25.28 25.408 25.408 0 0 1-25.344-25.28v-91.808h-58.88v91.808a25.408 25.408 0 0 1-25.28 25.28 25.408 25.408 0 0 1-25.344-25.28v-91.808h-58.88v91.808a25.408 25.408 0 0 1-25.312 25.28 25.408 25.408 0 0 1-25.312-25.28v-91.808H266.816a88.704 88.704 0 0 1-88.64-88.64v-71.872H89.984a25.408 25.408 0 0 1-25.312-25.344c0-13.92 11.392-25.28 25.312-25.28H178.24v-58.88H89.92a25.408 25.408 0 0 1-25.312-25.344c0-13.92 11.392-25.312 25.312-25.312H178.24v-58.88H89.92a25.408 25.408 0 0 1-25.312-25.312c0-13.92 11.392-25.312 25.312-25.312H178.24v-58.88H89.92a25.408 25.408 0 0 1-25.312-25.312c0-13.952 11.392-25.344 25.312-25.344H178.24V231.68a88.704 88.704 0 0 1 88.64-88.64h108.608V57.856c0-13.92 11.392-25.312 25.28-25.312 13.952 0 25.344 11.392 25.344 25.312V143.04h58.88V57.824c0-13.92 11.392-25.312 25.312-25.312 13.92 0 25.312 11.392 25.312 25.312V143.04h58.88V57.824c0-13.92 11.392-25.312 25.312-25.312 13.952 0 25.344 11.392 25.344 25.312V143.04H704V57.824c0-13.92 11.36-25.312 25.28-25.312 13.952 0 25.344 11.392 25.344 25.312V143.04h35.2a88.704 88.704 0 0 1 88.64 88.64v71.872h88.224c13.92 0 25.312 11.392 25.312 25.344a25.408 25.408 0 0 1-25.312 25.28zM726.848 704H329.152a9.152 9.152 0 0 1-9.152-9.152V297.152a24 24 0 1 0-48 0v397.696c0 31.584 25.6 57.152 57.152 57.152h397.696a24 24 0 1 0 0-48z" fill="#FE240A" p-id="11747"></path><path d="M419.488 512.096h76.928l16.832 43.744h42.24l-77.12-192.416h-41.152l-74.944 192.416h41.28l15.936-43.744z m37.92-103.84l26.464 71.424h-52.48l26.016-71.424z m157.536 75.072h25.408c17.6 0 31.04-0.896 40.384-2.752 6.88-1.504 13.6-4.576 20.16-9.152 6.592-4.608 12.096-10.88 16.384-18.976 4.288-8.096 6.4-18.048 6.4-29.824 0-15.296-3.648-27.84-11.136-37.472a50.88 50.88 0 0 0-27.68-18.816c-7.2-1.984-22.656-2.88-46.208-2.88h-62.56v192.384h38.848v-72.512z m0-87.328h18.816c14.08 0 23.264 0.48 28 1.376a26.432 26.432 0 0 1 15.616 8.576c4.128 4.576 6.08 10.4 6.08 17.28a26.24 26.24 0 0 1-4.416 14.976 25.728 25.728 0 0 1-12.096 9.504c-5.184 1.984-15.424 3.04-30.72 3.04h-21.28v-54.72z m139.36-32.576h38.848v192.416h-38.848v-192.416z" fill="#FFFFFF" p-id="11748"></path></svg>